<?xml version="1.0" encoding="iso-8859-1"?>
<!-- Generator: Adobe Illustrator 19.0.0, SVG Export Plug-In . SVG Version: 6.00 Build 0)  -->
<svg version="1.1" id="Layer_1" xmlns="http://www.w3.org/2000/svg" xmlns:xlink="http://www.w3.org/1999/xlink" x="0px" y="0px"
	 viewBox="0 0 512 512" style="enable-background:new 0 0 512 512;" xml:space="preserve">
<g>
	<g>
		<path d="M413.4,217.098c-52.807,22.982-43.402,74.765-41.898,114.632l-31.063-28.162c-38.767,17.12-69.482,91.808-33.808,150.306
			c20.058,32.882,55.034,52.506,93.562,52.506c43.644,0,84.375-26.765,101.352-66.604C547.152,332.69,418.052,291.521,413.4,217.098
			z"/>
	</g>
</g>
<g>
	<g>
		<rect x="166.957" y="128.056" width="178.087" height="77.913"/>
	</g>
</g>
<g>
	<g>
		<rect y="239.36" width="239.304" height="77.913"/>
	</g>
</g>
<g>
	<g>
		<rect y="128.056" width="133.565" height="77.913"/>
	</g>
</g>
<g>
	<g>
		<path d="M272.696,239.359v77.913h6.926c12.586-20.73,37.175-45.54,58.443-47.01c1.353-10.326,3.827-20.804,8.007-30.903H272.696z"
			/>
	</g>
</g>
<g>
	<g>
		<path d="M456.213,239.359c13.436,21.106,36.265,41.914,55.787,68.336v-68.336H456.213z"/>
	</g>
</g>
<g>
	<g>
		<path d="M264.535,350.663h-97.578v89.043h97.133C255.373,411.469,255.283,380.432,264.535,350.663z"/>
	</g>
</g>
<g>
	<g>
		<path d="M0,350.663v72.348c0,9.217,7.479,16.696,16.696,16.696h116.87v-89.043H0z"/>
	</g>
</g>
<g>
	<g>
		<path d="M378.435,128.053v70.567c9.15-6.552,23.677-14.915,34.967-14.915c13.738,0,26.416,8.368,31.352,22.261H512v-77.913
			H378.435z"/>
	</g>
</g>
<g>
	<g>
		<path d="M16.696,5.62C7.479,5.62,0,13.098,0,22.315v72.348h239.304V5.62H16.696z"/>
	</g>
</g>
<g>
	<g>
		<path d="M495.304,5.62H272.696v89.044H512V22.315C512,13.098,504.521,5.62,495.304,5.62z"/>
	</g>
</g>
<g>
</g>
<g>
</g>
<g>
</g>
<g>
</g>
<g>
</g>
<g>
</g>
<g>
</g>
<g>
</g>
<g>
</g>
<g>
</g>
<g>
</g>
<g>
</g>
<g>
</g>
<g>
</g>
<g>
</g>
</svg>
