<?xml version="1.0" encoding="iso-8859-1"?>
<!-- Generator: Adobe Illustrator 19.0.0, SVG Export Plug-In . SVG Version: 6.00 Build 0)  -->
<svg version="1.1" id="Capa_1" xmlns="http://www.w3.org/2000/svg" xmlns:xlink="http://www.w3.org/1999/xlink" x="0px" y="0px"
	 viewBox="0 0 480 480" style="enable-background:new 0 0 480 480;" xml:space="preserve">
<g>
	<g>
		<path d="M473.57,164.156L440,157.442V148c0-4.418-3.578-8-8-8H274.038L192,95.252V92c0-13.234-10.766-24-24-24s-24,10.766-24,24
			v81.224l-41.313,6.885C98.828,180.75,96,184.09,96,188v48c0,3.91,2.828,7.25,6.688,7.891L144,250.776V332
			c0,13.234,10.766,24,24,24s24-10.766,24-24v-3.252L274.038,284h33.831l-43.22,100.848c-0.883,2.059-0.859,4.391,0.055,6.43
			s2.648,3.605,4.766,4.313l48,16c0.836,0.277,1.695,0.41,2.531,0.41c3.25,0,6.289-1.988,7.492-5.191L373.545,284H432
			c4.422,0,8-3.582,8-8v-9.442l33.57-6.714c3.734-0.746,6.43-4.031,6.43-7.844v-80C480,168.188,477.305,164.902,473.57,164.156z
			 M144,234.557l-32-5.334v-34.445l32-5.334V234.557z M176,100v224v8c0,4.41-3.586,8-8,8s-8-3.59-8-8V92c0-4.41,3.586-8,8-8
			s8,3.59,8,8V100z M264,271.25l-72,39.273V113.477l72,39.273V271.25z M315.219,393.973l-32.438-10.813L325.274,284h31.181
			L315.219,393.973z M424,268H280V156h144V268z M464,245.441l-24,4.801v-76.484l24,4.801V245.441z"/>
	</g>
</g>
<g>
	<g>
		<rect y="204" width="80" height="16"/>
	</g>
</g>
<g>
	<g>
		<rect x="51.995" y="72.398" transform="matrix(0.7071 -0.7071 0.7071 0.7071 -61.6198 75.2251)" width="16" height="79.192"/>
	</g>
</g>
<g>
	<g>
		<rect x="20.388" y="296.005" transform="matrix(0.7071 -0.7071 0.7071 0.7071 -197.3952 131.4565)" width="79.192" height="16"/>
	</g>
</g>
<g>
</g>
<g>
</g>
<g>
</g>
<g>
</g>
<g>
</g>
<g>
</g>
<g>
</g>
<g>
</g>
<g>
</g>
<g>
</g>
<g>
</g>
<g>
</g>
<g>
</g>
<g>
</g>
<g>
</g>
</svg>
